<svg width="180" height="186" viewBox="0 0 180 186" fill="none" xmlns="http://www.w3.org/2000/svg">
<path fill-rule="evenodd" clip-rule="evenodd" d="M180 139.821H157.746C135.146 139.821 116.983 132.616 89.999 147.434V119.989C115.305 103.095 135.031 112.376 157.515 112.376H179.948V139.821H180Z" fill="#EFEFEF"/>
<path fill-rule="evenodd" clip-rule="evenodd" d="M0 155.102H22.2538C44.8537 155.102 63.0175 162.307 90.001 147.488V174.933C64.6954 191.828 44.969 182.547 22.4845 182.547H0.0524359V155.102H0Z" fill="#EFEFEF"/>
<path fill-rule="evenodd" clip-rule="evenodd" d="M179.885 84.932H157.746C135.146 84.932 116.983 77.7273 89.999 92.5456V65.1007C115.305 48.2059 135.031 57.487 157.515 57.487H179.885V84.932Z" fill="#EFEFEF"/>
<path fill-rule="evenodd" clip-rule="evenodd" d="M0 100.149H22.2538C44.8537 100.149 63.0175 107.354 90.001 92.5352V119.98C64.6954 136.875 44.969 127.594 22.4845 127.594H0.0524359V100.149H0Z" fill="#EFEFEF"/>
<path fill-rule="evenodd" clip-rule="evenodd" d="M180 29.9886H157.746C135.146 29.9886 116.983 22.7839 89.999 37.6023V10.1573C115.305 -6.7375 135.031 2.54365 157.515 2.54365H179.948V29.9886H180Z" fill="#EFEFEF"/>
<path fill-rule="evenodd" clip-rule="evenodd" d="M0 45.2685H22.2538C44.8537 45.2685 63.0175 52.4732 90.001 37.6548V65.0997C64.6954 81.9946 44.969 72.7134 22.4845 72.7134H0.0524359V45.2685H0Z" fill="#EFEFEF"/>
<rect width="180" height="180" fill="url(#paint0_linear_99_12213)"/>
<defs>
<linearGradient id="paint0_linear_99_12213" x1="90" y1="0" x2="90" y2="180" gradientUnits="userSpaceOnUse">
<stop stop-color="white"/>
<stop offset="0.68" stop-color="white" stop-opacity="0.665"/>
<stop offset="1" stop-color="white" stop-opacity="0"/>
</linearGradient>
</defs>
</svg>
