<svg width="178" height="21" viewBox="0 0 178 21" fill="none" xmlns="http://www.w3.org/2000/svg">
<path d="M84.2751 10.4746H82.1474V15.348C82.1474 16.8586 81.6482 17.8306 80.2691 17.8306C78.8636 17.8306 78.1675 16.7928 78.1675 15.2953V10.4746H76.0397V15.65C76.0397 18.3822 77.8785 19.7612 80.2691 19.7612C82.502 19.7612 84.2751 18.6054 84.2751 15.7288V10.4746Z" fill="#0E47BB"/>
<path d="M87.4669 12.3529H92.2742L91.2891 13.4698C89.9361 15.0205 88.5965 16.5711 87.2437 18.1216V19.6714H95.1638V17.7933H89.9888L95.0455 12.0246V10.4746H87.4669V12.3529Z" fill="#0E47BB"/>
<path d="M98.3291 19.6714H102.44C104.594 19.6714 106.144 18.8703 106.144 16.9523C106.144 15.8093 105.501 15.0341 104.424 14.8633C105.33 14.4954 105.842 13.7069 105.842 12.8131C105.842 11.4466 104.949 10.4746 102.545 10.4746H98.3291V19.6714ZM102.309 15.7961C103.504 15.7961 103.951 16.1641 103.951 16.8735C103.951 17.688 103.386 17.9903 102.112 17.9903H100.457V15.7961H102.309ZM102.086 12.1559C103.255 12.1559 103.649 12.4714 103.649 13.181C103.649 13.7727 103.202 14.2457 102.348 14.2457H100.457V12.1559H102.086Z" fill="#0E47BB"/>
<path d="M109.454 19.6714H116.823V17.9245H111.582V15.849H116.363V14.1679H111.582V12.2216H116.705V10.4746H109.454V19.6714Z" fill="#0E47BB"/>
<path d="M120.317 19.6714H122.444V16.1372L122.838 15.7037L126.175 19.6714H128.907L124.887 14.8497L128.893 10.4746H126.109L122.444 14.7315V10.4746H120.317V19.6714Z" fill="#0E47BB"/>
<path d="M131.678 19.6714H133.806V10.4746H131.678V19.6714Z" fill="#0E47BB"/>
<path d="M142.961 17.1357C142.961 17.6612 142.593 18.0683 141.385 18.0683C140.242 18.0683 139.007 17.543 138.219 16.689L137.103 18.0947C137.917 19.1191 139.283 19.8809 141.45 19.8809C143.657 19.8809 145.154 18.6333 145.154 16.978C145.154 13.6677 139.638 14.5479 139.638 12.9714C139.638 12.3672 140.15 12.0782 141.174 12.0782C142.212 12.0782 143.302 12.3936 143.998 12.9979L144.865 11.5004C144.156 10.7648 142.79 10.2658 141.253 10.2658C138.889 10.2658 137.457 11.6054 137.457 13.0372C137.457 16.584 142.961 15.4542 142.961 17.1357Z" fill="#0E47BB"/>
<path d="M147.466 12.3529H150.447V19.6714H152.575V12.3529H155.557V10.4746H147.466V12.3529Z" fill="#0E47BB"/>
<path d="M156.33 19.6714H158.366L159.128 17.9783H163.2L163.948 19.6714H166.05L162.018 10.4746H160.363L156.33 19.6714ZM160.691 14.4703C160.809 14.1811 161.125 13.2217 161.23 13.1953C161.335 13.5634 161.44 13.8657 161.571 14.1811L162.399 16.2314H159.89L160.691 14.4703Z" fill="#0E47BB"/>
<path d="M177.228 19.6714V10.4746H175.297V15.3095C175.297 15.6512 175.336 16.1635 175.362 16.5052C175.244 16.4919 174.653 15.5722 174.522 15.3884L170.49 10.4746H168.743V19.6714H170.673V14.8892C170.673 14.5345 170.647 14.022 170.608 13.641C170.726 13.6935 171.422 14.7182 171.606 14.9285L175.468 19.6714H177.228Z" fill="#0E47BB"/>
<path d="M0.0270996 19.6714H4.44647V0.570332H0.0270996V19.6714Z" fill="#0E47BB"/>
<path d="M27.1978 19.6714V0.570332H23.1876V10.612C23.1876 11.3218 23.2692 12.3857 23.3237 13.0954C23.0785 13.0679 21.851 11.1577 21.5779 10.776L13.2033 0.570332H9.57483V19.6714H13.585V9.73915C13.585 9.00239 13.5305 7.93802 13.4485 7.14673C13.6941 7.25578 15.1401 9.38409 15.5218 9.82074L23.5422 19.6714H27.1978Z" fill="#0E47BB"/>
<path d="M41.4101 20.0176C45.0931 20.0176 47.8483 18.5994 49.676 16.7171V8.93524H40.6737V12.458H45.8569V14.8606C44.3018 15.8709 42.6926 16.1439 41.465 16.1439C38.0821 16.1439 35.7086 13.8504 35.7086 10.137C35.7086 6.43438 38.0821 4.15123 41.465 4.15123C43.2378 4.15123 44.711 4.64033 45.9385 5.70053L48.5576 3.11434C46.7843 1.4231 44.4108 0.277157 41.4101 0.277157C35.5725 0.277157 31.3442 4.3144 31.3442 10.137C31.3442 15.9529 35.5725 20.0176 41.4101 20.0176Z" fill="#0E47BB"/>
<path d="M63.343 0.357464C57.5599 0.357464 53.3312 4.36765 53.3312 10.1211C53.3312 15.875 57.5054 19.8848 63.343 19.8848C69.1534 19.8848 73.3822 15.875 73.3822 10.1211C73.3822 4.36765 69.2084 0.357464 63.343 0.357464ZM63.343 16.0386C60.015 16.0386 57.6961 13.7754 57.6961 10.1211C57.6961 6.44018 60.015 4.20407 63.343 4.20407C66.6984 4.20407 69.0173 6.44018 69.0173 10.1211C69.0173 13.7754 66.6984 16.0386 63.343 16.0386Z" fill="#0E47BB"/>
</svg>
