<svg width="21" height="20" viewBox="0 0 21 20" fill="none" xmlns="http://www.w3.org/2000/svg">
<path d="M7.125 19V13C7.125 12.4696 7.33571 11.9609 7.71079 11.5858C8.08586 11.2107 8.59457 11 9.125 11H11.125C11.6554 11 12.1641 11.2107 12.5392 11.5858C12.9143 11.9609 13.125 12.4696 13.125 13V19M3.125 10H1.125L10.125 1L19.125 10H17.125V17C17.125 17.5304 16.9143 18.0391 16.5392 18.4142C16.1641 18.7893 15.6554 19 15.125 19H5.125C4.59457 19 4.08586 18.7893 3.71079 18.4142C3.33571 18.0391 3.125 17.5304 3.125 17V10Z" stroke="#737373" stroke-width="1.8" stroke-linecap="round" stroke-linejoin="round"/>
</svg>
