<svg width="20" height="20" viewBox="0 0 20 20" fill="none" xmlns="http://www.w3.org/2000/svg">
<path d="M8 0.5H12C16.1421 0.5 19.5 3.85786 19.5 8V12C19.5 16.1421 16.1421 19.5 12 19.5H8C3.85786 19.5 0.5 16.1421 0.5 12V8C0.5 3.85786 3.85786 0.5 8 0.5Z" fill="#00A070"/>
<path d="M8 0.5H12C16.1421 0.5 19.5 3.85786 19.5 8V12C19.5 16.1421 16.1421 19.5 12 19.5H8C3.85786 19.5 0.5 16.1421 0.5 12V8C0.5 3.85786 3.85786 0.5 8 0.5Z" stroke="#00A070"/>
<path d="M6.5 10L9 12.5L14 7.5" stroke="white" stroke-width="2.4" stroke-linecap="round" stroke-linejoin="round"/>
</svg>
