<svg width="64" height="64" viewBox="0 0 64 64" fill="none" xmlns="http://www.w3.org/2000/svg">
<path d="M10.6667 37.3333L32 29.3333L53.3333 37.3333M32 8C38.2289 13.5109 46.3586 16.3802 54.6667 16C55.8762 20.1147 56.2464 24.4306 55.755 28.6912C55.2636 32.9517 53.9208 37.0701 51.8064 40.8014C49.692 44.5328 46.849 47.801 43.4465 50.4119C40.0441 53.0229 36.1514 54.9232 32 56C27.8486 54.9232 23.9559 53.0229 20.5535 50.4119C17.151 47.801 14.308 44.5328 12.1936 40.8014C10.0791 37.0701 8.73635 32.9517 8.245 28.6912C7.75364 24.4306 8.12375 20.1147 9.33333 16C17.6414 16.3802 25.7711 13.5109 32 8Z" stroke="#DC3055" stroke-width="4" stroke-linecap="round" stroke-linejoin="round"/>
</svg>
