<svg width="16" height="16" viewBox="0 0 16 16" fill="none" xmlns="http://www.w3.org/2000/svg">
<path d="M2 6.66683H14M4.66667 10.0002H4.67333M7.33333 10.0002H8.66667M2 5.3335C2 4.80306 2.21071 4.29436 2.58579 3.91928C2.96086 3.54421 3.46957 3.3335 4 3.3335H12C12.5304 3.3335 13.0391 3.54421 13.4142 3.91928C13.7893 4.29436 14 4.80306 14 5.3335V10.6668C14 11.1973 13.7893 11.706 13.4142 12.081C13.0391 12.4561 12.5304 12.6668 12 12.6668H4C3.46957 12.6668 2.96086 12.4561 2.58579 12.081C2.21071 11.706 2 11.1973 2 10.6668V5.3335Z" stroke="#006AA5" stroke-width="1.6" stroke-linecap="round" stroke-linejoin="round"/>
</svg>
