<svg width="69" height="68" viewBox="0 0 69 68" fill="none" xmlns="http://www.w3.org/2000/svg">
<path d="M1 34C1 15.4985 15.9985 0.5 34.5 0.5C53.0015 0.5 68 15.4985 68 34C68 52.5015 53.0015 67.5 34.5 67.5C15.9985 67.5 1 52.5015 1 34Z" fill="white"/>
<path d="M1 34C1 15.4985 15.9985 0.5 34.5 0.5C53.0015 0.5 68 15.4985 68 34C68 52.5015 53.0015 67.5 34.5 67.5C15.9985 67.5 1 52.5015 1 34Z" fill="#0A0A0A" fill-opacity="0.03"/>
<path d="M1 34C1 15.4985 15.9985 0.5 34.5 0.5C53.0015 0.5 68 15.4985 68 34C68 52.5015 53.0015 67.5 34.5 67.5C15.9985 67.5 1 52.5015 1 34Z" stroke="#EFEFEF"/>
<path d="M26.292 25.8043C25.5406 27.471 25.3146 29.327 25.6441 31.1253C25.9736 32.9235 26.8429 34.5788 28.1364 35.8709C29.4299 37.1629 31.0861 38.0303 32.8848 38.3578C34.6835 38.6852 36.5392 38.4571 38.205 37.7038M41.5755 35.0638C42.9384 33.3329 43.6191 31.1623 43.4886 28.9631C43.3581 26.7639 42.4256 24.689 40.8676 23.1314C39.3096 21.5738 37.2345 20.6417 35.0353 20.5118C32.836 20.3818 30.6656 21.063 28.935 22.4263M37.4745 30.9523C37.491 30.4903 37.5 30.0058 37.5 29.5003C37.5 23.9998 36.4995 20.9998 34.5 20.5003C33.096 20.8513 32.184 22.4353 31.767 25.2508M36.6495 36.1618C36.15 37.4878 35.4345 38.2663 34.5 38.5003M34.5 38.5003C32.691 38.0503 31.701 35.5513 31.527 31.0078M34.5 38.5003V43.0003M25.5 29.5003H30M36 29.5003H43.5M21 46.0003H31.5M31.5 46.0003C31.5 46.796 31.8161 47.559 32.3787 48.1216C32.9413 48.6842 33.7044 49.0003 34.5 49.0003C35.2956 49.0003 36.0587 48.6842 36.6213 48.1216C37.1839 47.559 37.5 46.796 37.5 46.0003M31.5 46.0003C31.5 45.2047 31.8161 44.4416 32.3787 43.879C32.9413 43.3164 33.7044 43.0003 34.5 43.0003M37.5 46.0003H48M37.5 46.0003C37.5 45.2047 37.1839 44.4416 36.6213 43.879C36.0587 43.3164 35.2956 43.0003 34.5 43.0003M21 20.5003L48 47.5003" stroke="#737373" stroke-width="2.2" stroke-linecap="round" stroke-linejoin="round"/>
</svg>
