<svg width="20" height="20" viewBox="0 0 20 20" fill="none" xmlns="http://www.w3.org/2000/svg">
<path d="M15.8333 6.66659C16.2754 6.66659 16.6993 6.49099 17.0118 6.17843C17.3244 5.86587 17.5 5.44195 17.5 4.99992C17.5 4.55789 17.3244 4.13397 17.0118 3.82141C16.6993 3.50885 16.2754 3.33325 15.8333 3.33325H4.16667C3.72464 3.33325 3.30072 3.50885 2.98816 3.82141C2.67559 4.13397 2.5 4.55789 2.5 4.99992C2.5 5.44195 2.67559 5.86587 2.98816 6.17843C3.30072 6.49099 3.72464 6.66659 4.16667 6.66659M15.8333 6.66659H4.16667M15.8333 6.66659V14.9999C15.8333 15.4419 15.6577 15.8659 15.3452 16.1784C15.0326 16.491 14.6087 16.6666 14.1667 16.6666H5.83333C5.39131 16.6666 4.96738 16.491 4.65482 16.1784C4.34226 15.8659 4.16667 15.4419 4.16667 14.9999V6.66659M8.33333 9.99992H11.6667" stroke="#737373" stroke-width="1.8" stroke-linecap="round" stroke-linejoin="round"/>
</svg>
