<svg width="69" height="68" viewBox="0 0 69 68" fill="none" xmlns="http://www.w3.org/2000/svg">
<path d="M1 34C1 15.4985 15.9985 0.5 34.5 0.5C53.0015 0.5 68 15.4985 68 34C68 52.5015 53.0015 67.5 34.5 67.5C15.9985 67.5 1 52.5015 1 34Z" fill="white"/>
<path d="M1 34C1 15.4985 15.9985 0.5 34.5 0.5C53.0015 0.5 68 15.4985 68 34C68 52.5015 53.0015 67.5 34.5 67.5C15.9985 67.5 1 52.5015 1 34Z" fill="#F0F9F6"/>
<path d="M1 34C1 15.4985 15.9985 0.5 34.5 0.5C53.0015 0.5 68 15.4985 68 34C68 52.5015 53.0015 67.5 34.5 67.5C15.9985 67.5 1 52.5015 1 34Z" stroke="#D6F0E8"/>
<path d="M36 35.5V29.5C36 29.1022 36.158 28.7206 36.4393 28.4393C36.7206 28.158 37.1022 28 37.5 28H46.5C46.8978 28 47.2794 28.158 47.5607 28.4393C47.842 28.7206 48 29.1022 48 29.5V33.25M43.5 28V23.5C43.5 23.1022 43.342 22.7206 43.0607 22.4393C42.7794 22.158 42.3978 22 42 22H22.5C22.1022 22 21.7206 22.158 21.4393 22.4393C21.158 22.7206 21 23.1022 21 23.5V41.5C21 41.8978 21.158 42.2794 21.4393 42.5607C21.7206 42.842 22.1022 43 22.5 43H30.75M40.5 29.5H43.5M43.2 47.2255L39.942 48.9325C39.8453 48.9828 39.7365 49.0053 39.6278 48.9974C39.5191 48.9895 39.4148 48.9515 39.3264 48.8877C39.238 48.8239 39.1691 48.7368 39.1274 48.6361C39.0856 48.5354 39.0727 48.4251 39.09 48.3175L39.7125 44.701L37.077 42.1405C36.9983 42.0645 36.9426 41.9678 36.9163 41.8616C36.8899 41.7554 36.8939 41.644 36.9278 41.54C36.9618 41.436 37.0243 41.3436 37.1082 41.2734C37.1921 41.2032 37.2941 41.158 37.4025 41.143L41.0445 40.615L42.6735 37.3255C42.7222 37.2275 42.7973 37.1451 42.8903 37.0875C42.9833 37.0298 43.0906 36.9993 43.2 36.9993C43.3094 36.9993 43.4167 37.0298 43.5097 37.0875C43.6027 37.1451 43.6778 37.2275 43.7265 37.3255L45.3555 40.615L48.9975 41.143C49.1056 41.1585 49.2071 41.204 49.2907 41.2743C49.3742 41.3445 49.4365 41.4368 49.4703 41.5406C49.5042 41.6444 49.5084 41.7555 49.4823 41.8616C49.4563 41.9676 49.4011 42.0642 49.323 42.1405L46.6875 44.701L47.3085 48.316C47.3271 48.4238 47.3152 48.5347 47.274 48.636C47.2328 48.7374 47.164 48.8251 47.0754 48.8893C46.9868 48.9535 46.882 48.9916 46.7729 48.9992C46.6637 49.0069 46.5547 48.9837 46.458 48.9325L43.2 47.2255Z" stroke="#00A070" stroke-width="2.2" stroke-linecap="round" stroke-linejoin="round"/>
</svg>
