<svg width="25" height="24" viewBox="0 0 25 24" fill="none" xmlns="http://www.w3.org/2000/svg">
<path d="M6.375 20.05V20C6.375 18.9391 6.79643 17.9217 7.54657 17.1716C8.29672 16.4214 9.31413 16 10.375 16H14.375C15.4359 16 16.4533 16.4214 17.2034 17.1716C17.9536 17.9217 18.375 18.9391 18.375 20V20.05M12.375 13C13.1706 13 13.9337 12.6839 14.4963 12.1213C15.0589 11.5587 15.375 10.7956 15.375 10C15.375 9.20435 15.0589 8.44129 14.4963 7.87868C13.9337 7.31607 13.1706 7 12.375 7C11.5794 7 10.8163 7.31607 10.2537 7.87868C9.69107 8.44129 9.375 9.20435 9.375 10C9.375 10.7956 9.69107 11.5587 10.2537 12.1213C10.8163 12.6839 11.5794 13 12.375 13ZM12.375 3C19.575 3 21.375 4.8 21.375 12C21.375 19.2 19.575 21 12.375 21C5.175 21 3.375 19.2 3.375 12C3.375 4.8 5.175 3 12.375 3Z" stroke="#737373" stroke-width="1.8" stroke-linecap="round" stroke-linejoin="round"/>
</svg>
