<svg width="59" height="58" viewBox="0 0 59 58" fill="none" xmlns="http://www.w3.org/2000/svg">
<path d="M31.9167 48.3333L40.3871 39.8629M31.9167 48.3333H15C13.7181 48.3333 12.4887 47.8241 11.5823 46.9177C10.6759 46.0113 10.1667 44.7819 10.1667 43.5V14.5C10.1667 13.1781 10.6935 11.9867 11.5514 11.1167M31.9167 48.3333V33.8333C31.9167 33.176 32.1801 32.5791 32.6054 32.1441M45.2204 35.0296L48.8478 31.4022M41.5833 31.4167H48.8333V14.5C48.8333 13.2181 48.3241 11.9887 47.4177 11.0823C46.5113 10.1759 45.2819 9.66667 44 9.66667H19.8333M7.75 7.25L51.25 50.75" stroke="#D4D4D4" stroke-width="3.8" stroke-linecap="round" stroke-linejoin="round"/>
</svg>
