<svg width="20" height="20" viewBox="0 0 20 20" fill="none" xmlns="http://www.w3.org/2000/svg">
<path d="M5.83333 5.83342H5C4.55797 5.83342 4.13405 6.00902 3.82149 6.32158C3.50893 6.63414 3.33333 7.05806 3.33333 7.50009V15.0001C3.33333 15.4421 3.50893 15.866 3.82149 16.1786C4.13405 16.4912 4.55797 16.6668 5 16.6668H12.5C12.942 16.6668 13.366 16.4912 13.6785 16.1786C13.9911 15.866 14.1667 15.4421 14.1667 15.0001V14.1668M13.3333 4.16676L15.8333 6.66676M16.9875 5.48759C17.3157 5.15938 17.5001 4.71424 17.5001 4.25009C17.5001 3.78594 17.3157 3.34079 16.9875 3.01259C16.6593 2.68438 16.2142 2.5 15.75 2.5C15.2858 2.5 14.8407 2.68438 14.5125 3.01259L7.5 10.0001V12.5001H10L16.9875 5.48759Z" stroke="white" stroke-width="1.8" stroke-linecap="round" stroke-linejoin="round"/>
</svg>
