<svg width="25" height="24" viewBox="0 0 25 24" fill="none" xmlns="http://www.w3.org/2000/svg">
<path d="M14.125 3V7C14.125 7.26522 14.2304 7.51957 14.4179 7.70711C14.6054 7.89464 14.8598 8 15.125 8H19.125M14.125 3H7.125C6.59457 3 6.08586 3.21071 5.71079 3.58579C5.33571 3.96086 5.125 4.46957 5.125 5V19C5.125 19.5304 5.33571 20.0391 5.71079 20.4142C6.08586 20.7893 6.59457 21 7.125 21H17.125C17.6554 21 18.1641 20.7893 18.5392 20.4142C18.9143 20.0391 19.125 19.5304 19.125 19V8M14.125 3L19.125 8M9.125 7H10.125M9.125 13H15.125M13.125 17H15.125" stroke="#00A070" stroke-width="1.8" stroke-linecap="round" stroke-linejoin="round"/>
</svg>
