<svg width="18" height="18" viewBox="0 0 18 18" fill="none" xmlns="http://www.w3.org/2000/svg">
<path d="M11.75 4.83333C12.192 4.83333 12.616 5.00893 12.9285 5.32149C13.2411 5.63405 13.4167 6.05797 13.4167 6.5M11.75 1.5C13.0761 1.5 14.3479 2.02678 15.2855 2.96447C16.2232 3.90215 16.75 5.17392 16.75 6.5M3.41667 2.33333H6.75L8.41667 6.5L6.33333 7.75C7.2258 9.55961 8.69039 11.0242 10.5 11.9167L11.75 9.83333L15.9167 11.5V14.8333C15.9167 15.2754 15.7411 15.6993 15.4285 16.0118C15.116 16.3244 14.692 16.5 14.25 16.5C10.9994 16.3025 7.93346 14.9221 5.63069 12.6193C3.32792 10.3165 1.94754 7.25061 1.75 4C1.75 3.55797 1.92559 3.13405 2.23816 2.82149C2.55072 2.50893 2.97464 2.33333 3.41667 2.33333Z" stroke="#737373" stroke-width="1.8" stroke-linecap="round" stroke-linejoin="round"/>
</svg>
