<svg width="32" height="32" viewBox="0 0 32 32" fill="none" xmlns="http://www.w3.org/2000/svg">
<path d="M0.5 16C0.5 7.43959 7.43959 0.5 16 0.5C24.5604 0.5 31.5 7.43959 31.5 16C31.5 24.5604 24.5604 31.5 16 31.5C7.43959 31.5 0.5 24.5604 0.5 16Z" fill="white"/>
<path d="M0.5 16C0.5 7.43959 7.43959 0.5 16 0.5C24.5604 0.5 31.5 7.43959 31.5 16C31.5 24.5604 24.5604 31.5 16 31.5C7.43959 31.5 0.5 24.5604 0.5 16Z" fill="#F0F9F6"/>
<path d="M0.5 16C0.5 7.43959 7.43959 0.5 16 0.5C24.5604 0.5 31.5 7.43959 31.5 16C31.5 24.5604 24.5604 31.5 16 31.5C7.43959 31.5 0.5 24.5604 0.5 16Z" stroke="#D6F0E8"/>
<path d="M10 22H22M10 12.6667V13.3333C10 13.8638 10.2107 14.3725 10.5858 14.7475C10.9609 15.1226 11.4696 15.3333 12 15.3333C12.5304 15.3333 13.0391 15.1226 13.4142 14.7475C13.7893 14.3725 14 13.8638 14 13.3333M10 12.6667H22M10 12.6667L11.3333 10H20.6667L22 12.6667M14 13.3333V12.6667M14 13.3333C14 13.8638 14.2107 14.3725 14.5858 14.7475C14.9609 15.1226 15.4696 15.3333 16 15.3333C16.5304 15.3333 17.0391 15.1226 17.4142 14.7475C17.7893 14.3725 18 13.8638 18 13.3333M18 13.3333V12.6667M18 13.3333C18 13.8638 18.2107 14.3725 18.5858 14.7475C18.9609 15.1226 19.4696 15.3333 20 15.3333C20.5304 15.3333 21.0391 15.1226 21.4142 14.7475C21.7893 14.3725 22 13.8638 22 13.3333V12.6667M11.3333 22V15.2333M20.6667 22V15.2333M14 22V19.3333C14 18.9797 14.1405 18.6406 14.3905 18.3905C14.6406 18.1405 14.9797 18 15.3333 18H16.6667C17.0203 18 17.3594 18.1405 17.6095 18.3905C17.8595 18.6406 18 18.9797 18 19.3333V22" stroke="#00A070" stroke-width="1.5" stroke-linecap="round" stroke-linejoin="round"/>
</svg>
