<svg width="21" height="20" viewBox="0 0 21 20" fill="none" xmlns="http://www.w3.org/2000/svg">
<path d="M3.25 7.5H17.25M3.25 12.5H17.25M9.83333 2.5C8.42945 4.74968 7.68517 7.34822 7.68517 10C7.68517 12.6518 8.42945 15.2503 9.83333 17.5M10.6667 2.5C12.0705 4.74968 12.8148 7.34822 12.8148 10C12.8148 12.6518 12.0705 15.2503 10.6667 17.5M2.75 10C2.75 10.9849 2.94399 11.9602 3.3209 12.8701C3.69781 13.7801 4.25026 14.6069 4.9467 15.3033C5.64314 15.9997 6.46993 16.5522 7.37987 16.9291C8.28982 17.306 9.26509 17.5 10.25 17.5C11.2349 17.5 12.2102 17.306 13.1201 16.9291C14.0301 16.5522 14.8569 15.9997 15.5533 15.3033C16.2497 14.6069 16.8022 13.7801 17.1791 12.8701C17.556 11.9602 17.75 10.9849 17.75 10C17.75 8.01088 16.9598 6.10322 15.5533 4.6967C14.1468 3.29018 12.2391 2.5 10.25 2.5C8.26088 2.5 6.35322 3.29018 4.9467 4.6967C3.54018 6.10322 2.75 8.01088 2.75 10Z" stroke="#737373" stroke-width="1.8" stroke-linecap="round" stroke-linejoin="round"/>
</svg>
