<svg width="48" height="48" viewBox="0 0 48 48" fill="none" xmlns="http://www.w3.org/2000/svg">
<path d="M0.5 24C0.5 11.0213 11.0213 0.5 24 0.5C36.9787 0.5 47.5 11.0213 47.5 24C47.5 36.9787 36.9787 47.5 24 47.5C11.0213 47.5 0.5 36.9787 0.5 24Z" fill="white"/>
<path d="M0.5 24C0.5 11.0213 11.0213 0.5 24 0.5C36.9787 0.5 47.5 11.0213 47.5 24C47.5 36.9787 36.9787 47.5 24 47.5C11.0213 47.5 0.5 36.9787 0.5 24Z" fill="#F0F6FA"/>
<path d="M0.5 24C0.5 11.0213 11.0213 0.5 24 0.5C36.9787 0.5 47.5 11.0213 47.5 24C47.5 36.9787 36.9787 47.5 24 47.5C11.0213 47.5 0.5 36.9787 0.5 24Z" stroke="#D6E7F1"/>
<path d="M15 22H33M19 27H19.01M23 27H25M15 20C15 19.2044 15.3161 18.4413 15.8787 17.8787C16.4413 17.3161 17.2044 17 18 17H30C30.7956 17 31.5587 17.3161 32.1213 17.8787C32.6839 18.4413 33 19.2044 33 20V28C33 28.7956 32.6839 29.5587 32.1213 30.1213C31.5587 30.6839 30.7956 31 30 31H18C17.2044 31 16.4413 30.6839 15.8787 30.1213C15.3161 29.5587 15 28.7956 15 28V20Z" stroke="#006AA5" stroke-width="1.8" stroke-linecap="round" stroke-linejoin="round"/>
</svg>
