<svg width="40" height="40" viewBox="0 0 40 40" fill="none" xmlns="http://www.w3.org/2000/svg">
<path d="M5 16.6673H35M11.6667 25.0007H11.6833M18.3333 25.0007H21.6667M5 13.334C5 12.0079 5.52678 10.7361 6.46447 9.79845C7.40215 8.86077 8.67392 8.33398 10 8.33398H30C31.3261 8.33398 32.5979 8.86077 33.5355 9.79845C34.4732 10.7361 35 12.0079 35 13.334V26.6673C35 27.9934 34.4732 29.2652 33.5355 30.2029C32.5979 31.1405 31.3261 31.6673 30 31.6673H10C8.67392 31.6673 7.40215 31.1405 6.46447 30.2029C5.52678 29.2652 5 27.9934 5 26.6673V13.334Z" stroke="#A3A3A3" stroke-width="2.8" stroke-linecap="round" stroke-linejoin="round"/>
</svg>
