<svg width="181" height="68" viewBox="0 0 181 68" fill="none" xmlns="http://www.w3.org/2000/svg">
<path d="M146.5 67.5C127.998 67.5 113 52.5015 113 34C113 15.4985 127.998 0.5 146.5 0.5C165.002 0.5 180 15.4985 180 34C180 52.5015 165.002 67.5 146.5 67.5Z" fill="white"/>
<path d="M146.5 67.5C127.998 67.5 113 52.5015 113 34C113 15.4985 127.998 0.5 146.5 0.5C165.002 0.5 180 15.4985 180 34C180 52.5015 165.002 67.5 146.5 67.5Z" fill="#FDF3F5"/>
<path d="M146.5 67.5C127.998 67.5 113 52.5015 113 34C113 15.4985 127.998 0.5 146.5 0.5C165.002 0.5 180 15.4985 180 34C180 52.5015 165.002 67.5 146.5 67.5Z" stroke="#F9DEE4"/>
<path d="M150.25 25.7499L154.75 21.3999C155.327 20.8231 156.109 20.499 156.925 20.499C157.741 20.499 158.523 20.8231 159.1 21.3999C159.677 21.9768 160.001 22.7592 160.001 23.5749C160.001 24.3907 159.677 25.1731 159.1 25.7499L154.75 30.2499L158.5 41.4999L154.75 45.3249L149.5 35.4999L145 39.9999V44.4999L142 47.4999L139.75 40.7499L133 38.4999L136 35.4999H140.5L145 30.9999L135.25 25.7499L139 21.9999L150.25 25.7499Z" stroke="#DC3055" stroke-width="2.2" stroke-linecap="round" stroke-linejoin="round"/>
<path d="M90.5 67.5C71.9985 67.5 57 52.5015 57 34C57 15.4985 71.9985 0.5 90.5 0.5C109.002 0.5 124 15.4985 124 34C124 52.5015 109.002 67.5 90.5 67.5Z" fill="white"/>
<path d="M90.5 67.5C71.9985 67.5 57 52.5015 57 34C57 15.4985 71.9985 0.5 90.5 0.5C109.002 0.5 124 15.4985 124 34C124 52.5015 109.002 67.5 90.5 67.5Z" fill="#F0F6FA"/>
<path d="M90.5 67.5C71.9985 67.5 57 52.5015 57 34C57 15.4985 71.9985 0.5 90.5 0.5C109.002 0.5 124 15.4985 124 34C124 52.5015 109.002 67.5 90.5 67.5Z" stroke="#D6E7F1"/>
<path d="M80 41.5C80 42.2956 80.3161 43.0587 80.8787 43.6213C81.4413 44.1839 82.2044 44.5 83 44.5C83.7956 44.5 84.5587 44.1839 85.1213 43.6213C85.6839 43.0587 86 42.2956 86 41.5M80 41.5C80 40.7044 80.3161 39.9413 80.8787 39.3787C81.4413 38.8161 82.2044 38.5 83 38.5C83.7956 38.5 84.5587 38.8161 85.1213 39.3787C85.6839 39.9413 86 40.7044 86 41.5M80 41.5H77V32.5M86 41.5H95M95 41.5C95 42.2956 95.3161 43.0587 95.8787 43.6213C96.4413 44.1839 97.2044 44.5 98 44.5C98.7956 44.5 99.5587 44.1839 100.121 43.6213C100.684 43.0587 101 42.2956 101 41.5M95 41.5C95 40.7044 95.3161 39.9413 95.8787 39.3787C96.4413 38.8161 97.2044 38.5 98 38.5C98.7956 38.5 99.5587 38.8161 100.121 39.3787C100.684 39.9413 101 40.7044 101 41.5M101 41.5H104V35.5C104 34.7044 103.684 33.9413 103.121 33.3787C102.559 32.8161 101.796 32.5 101 32.5H99.5M77 32.5L80 25H93.5L99.5 32.5M77 32.5H99.5M90.5 32.5V25" stroke="#006AA5" stroke-width="2.2" stroke-linecap="round" stroke-linejoin="round"/>
<path d="M34.5 67.5C15.9985 67.5 1 52.5015 1 34C1 15.4985 15.9985 0.5 34.5 0.5C53.0015 0.5 68 15.4985 68 34C68 52.5015 53.0015 67.5 34.5 67.5Z" fill="white"/>
<path d="M34.5 67.5C15.9985 67.5 1 52.5015 1 34C1 15.4985 15.9985 0.5 34.5 0.5C53.0015 0.5 68 15.4985 68 34C68 52.5015 53.0015 67.5 34.5 67.5Z" fill="#F0F9F6"/>
<path d="M34.5 67.5C15.9985 67.5 1 52.5015 1 34C1 15.4985 15.9985 0.5 34.5 0.5C53.0015 0.5 68 15.4985 68 34C68 52.5015 53.0015 67.5 34.5 67.5Z" stroke="#D6F0E8"/>
<path d="M24 46C24 46.7956 24.3161 47.5587 24.8787 48.1213C25.4413 48.6839 26.2044 49 27 49C27.7956 49 28.5587 48.6839 29.1213 48.1213C29.6839 47.5587 30 46.7956 30 46M24 46C24 45.2044 24.3161 44.4413 24.8787 43.8787C25.4413 43.3161 26.2044 43 27 43C27.7956 43 28.5587 43.3161 29.1213 43.8787C29.6839 44.4413 30 45.2044 30 46M24 46H21V37M30 46H39M39 46C39 46.7956 39.3161 47.5587 39.8787 48.1213C40.4413 48.6839 41.2044 49 42 49C42.7956 49 43.5587 48.6839 44.1213 48.1213C44.6839 47.5587 45 46.7956 45 46M39 46C39 45.2044 39.3161 44.4413 39.8787 43.8787C40.4413 43.3161 41.2044 43 42 43C42.7956 43 43.5587 43.3161 44.1213 43.8787C44.6839 44.4413 45 45.2044 45 46M45 46H48V40C48 39.2044 47.6839 38.4413 47.1213 37.8787C46.5587 37.3161 45.7956 37 45 37H43.5M21 37L24 29.5H37.5L43.5 37M21 37H43.5M34.5 37V29.5M21 25L34.5 19L48 25" stroke="#00A070" stroke-width="2.2" stroke-linecap="round" stroke-linejoin="round"/>
</svg>
