<svg width="69" height="68" viewBox="0 0 69 68" fill="none" xmlns="http://www.w3.org/2000/svg">
<path d="M1 34C1 15.4985 15.9985 0.5 34.5 0.5C53.0015 0.5 68 15.4985 68 34C68 52.5015 53.0015 67.5 34.5 67.5C15.9985 67.5 1 52.5015 1 34Z" fill="white"/>
<path d="M1 34C1 15.4985 15.9985 0.5 34.5 0.5C53.0015 0.5 68 15.4985 68 34C68 52.5015 53.0015 67.5 34.5 67.5C15.9985 67.5 1 52.5015 1 34Z" fill="#0A0A0A" fill-opacity="0.03"/>
<path d="M1 34C1 15.4985 15.9985 0.5 34.5 0.5C53.0015 0.5 68 15.4985 68 34C68 52.5015 53.0015 67.5 34.5 67.5C15.9985 67.5 1 52.5015 1 34Z" stroke="#EFEFEF"/>
<path d="M27 30.9998H31.5V26.4998L26.25 21.2498C27.9294 20.4477 29.8163 20.186 31.6506 20.5007C33.4849 20.8154 35.1766 21.6911 36.4926 23.0071C37.8087 24.3232 38.6843 26.0148 38.9991 27.8492C39.3138 29.6835 39.0521 31.5703 38.25 33.2498L47.25 42.2498C47.8467 42.8465 48.182 43.6559 48.182 44.4998C48.182 45.3437 47.8467 46.153 47.25 46.7498C46.6533 47.3465 45.8439 47.6818 45 47.6818C44.1561 47.6818 43.3467 47.3465 42.75 46.7498L33.75 37.7498C32.0706 38.5519 30.1838 38.8136 28.3494 38.4988C26.5151 38.1841 24.8234 37.3085 23.5074 35.9924C22.1913 34.6764 21.3157 32.9847 21.0009 31.1504C20.6862 29.316 20.9479 27.4292 21.75 25.7498L27 30.9998Z" stroke="#737373" stroke-width="2.2" stroke-linecap="round" stroke-linejoin="round"/>
</svg>
