<svg width="32" height="32" viewBox="0 0 32 32" fill="none" xmlns="http://www.w3.org/2000/svg">
<path d="M0.5 16C0.5 7.43959 7.43959 0.5 16 0.5C24.5604 0.5 31.5 7.43959 31.5 16C31.5 24.5604 24.5604 31.5 16 31.5C7.43959 31.5 0.5 24.5604 0.5 16Z" fill="white"/>
<path d="M0.5 16C0.5 7.43959 7.43959 0.5 16 0.5C24.5604 0.5 31.5 7.43959 31.5 16C31.5 24.5604 24.5604 31.5 16 31.5C7.43959 31.5 0.5 24.5604 0.5 16Z" fill="#F0F9F6"/>
<path d="M0.5 16C0.5 7.43959 7.43959 0.5 16 0.5C24.5604 0.5 31.5 7.43959 31.5 16C31.5 24.5604 24.5604 31.5 16 31.5C7.43959 31.5 0.5 24.5604 0.5 16Z" stroke="#D6F0E8"/>
<path d="M10 10L22 22M14 11.3333H20C20.5304 11.3333 21.0391 11.544 21.4142 11.9191C21.7893 12.2942 22 12.8029 22 13.3333V18.6667C22.0002 18.8631 21.9714 19.0586 21.9147 19.2467M20.58 20.5813C20.3919 20.6381 20.1965 20.6669 20 20.6667H12C11.4696 20.6667 10.9609 20.456 10.5858 20.0809C10.2107 19.7058 10 19.1971 10 18.6667V13.3333C10 12.432 10.596 11.67 11.416 11.42M10 15.3333H15.3333M18 15.3333H22M12.6667 18H12.6733M15.3333 18H16.6667" stroke="#00A070" stroke-width="1.5" stroke-linecap="round" stroke-linejoin="round"/>
</svg>
