<svg width="73" height="72" viewBox="0 0 73 72" fill="none" xmlns="http://www.w3.org/2000/svg">
<rect x="0.5" width="72" height="72" rx="36" fill="#DC3055"/>
<path d="M39.5 23C40.0304 23 40.5391 23.2107 40.9142 23.5858C41.2893 23.9609 41.5 24.4696 41.5 25M39.5 19C41.0913 19 42.6174 19.6321 43.7426 20.7574C44.8679 21.8826 45.5 23.4087 45.5 25M29.5 20H33.5L35.5 25L33 26.5C34.071 28.6715 35.8285 30.429 38 31.5L39.5 29L44.5 31V35C44.5 35.5304 44.2893 36.0391 43.9142 36.4142C43.5391 36.7893 43.0304 37 42.5 37C38.5993 36.763 34.9202 35.1065 32.1568 32.3432C29.3935 29.5798 27.737 25.9007 27.5 22C27.5 21.4696 27.7107 20.9609 28.0858 20.5858C28.4609 20.2107 28.9696 20 29.5 20Z" stroke="white" stroke-width="1.8" stroke-linecap="round" stroke-linejoin="round"/>
<path d="M27.7703 51.67C27.9503 52.63 28.6303 53.28 29.7503 53.28C30.6603 53.28 31.2703 52.92 31.2703 52.21C31.2703 51.49 30.6503 51.05 29.2303 50.69C28.0703 50.4 27.0203 49.83 27.0203 48.69C27.0203 47.49 27.9803 46.74 29.3403 46.74C30.8603 46.74 31.8703 47.69 32.0203 49L31.1203 49.06C30.9903 48.17 30.3103 47.58 29.3303 47.58C28.5203 47.58 27.9203 48.01 27.9203 48.69C27.9203 49.55 28.9503 49.79 29.8503 50.04C31.1403 50.4 32.1703 51.04 32.1703 52.12C32.1703 53.44 30.9703 54.12 29.6803 54.12C28.1303 54.12 26.9903 53.17 26.8703 51.73L27.7703 51.67ZM36.4946 54.16C34.4746 54.16 33.2546 52.75 33.2546 50.46C33.2546 48.15 34.4746 46.74 36.4946 46.74C38.5246 46.74 39.7446 48.15 39.7446 50.46C39.7446 52.75 38.5246 54.16 36.4946 54.16ZM34.1546 50.46C34.1546 52.23 35.0346 53.32 36.4946 53.32C37.9646 53.32 38.8446 52.23 38.8446 50.46C38.8446 48.67 37.9646 47.58 36.4946 47.58C35.0346 47.58 34.1546 48.67 34.1546 50.46ZM41.7254 51.67C41.9054 52.63 42.5854 53.28 43.7054 53.28C44.6154 53.28 45.2254 52.92 45.2254 52.21C45.2254 51.49 44.6054 51.05 43.1854 50.69C42.0254 50.4 40.9754 49.83 40.9754 48.69C40.9754 47.49 41.9354 46.74 43.2954 46.74C44.8154 46.74 45.8254 47.69 45.9754 49L45.0754 49.06C44.9454 48.17 44.2654 47.58 43.2854 47.58C42.4754 47.58 41.8754 48.01 41.8754 48.69C41.8754 49.55 42.9054 49.79 43.8054 50.04C45.0954 50.4 46.1254 51.04 46.1254 52.12C46.1254 53.44 44.9254 54.12 43.6354 54.12C42.0854 54.12 40.9454 53.17 40.8254 51.73L41.7254 51.67Z" fill="white"/>
</svg>
