<svg width="289" height="193" viewBox="0 0 289 193" fill="none" xmlns="http://www.w3.org/2000/svg">
<g clip-path="url(#clip0_1191_175)">
<path fill-rule="evenodd" clip-rule="evenodd" d="M393 94.2721H344.413C295.071 94.2721 255.414 78.5421 196.5 110.895V50.9745C251.75 14.0878 294.819 34.3514 343.909 34.3514H392.886V94.2721H393Z" fill="black" fill-opacity="0.05"/>
<path fill-rule="evenodd" clip-rule="evenodd" d="M0 127.634H48.5869C97.9293 127.634 137.586 143.364 196.5 111.01V170.931C141.25 207.818 98.1812 187.554 49.0906 187.554H0.114484V127.634H0Z" fill="black" fill-opacity="0.05"/>
<path fill-rule="evenodd" clip-rule="evenodd" d="M0 7.65421H48.5869C97.9293 7.65421 137.586 23.3843 196.5 -8.96881V50.9519C141.25 87.8385 98.1812 67.575 49.0906 67.575H0.114484V7.65421H0Z" fill="black" fill-opacity="0.05"/>
</g>
<defs>
<clipPath id="clip0_1191_175">
<rect width="289" height="193" fill="white"/>
</clipPath>
</defs>
</svg>
