<svg width="20" height="20" viewBox="0 0 20 20" fill="none" xmlns="http://www.w3.org/2000/svg">
<path d="M10 6.66703V17.5004M10 6.66703C9.69856 5.42487 9.17954 4.36292 8.51061 3.61966C7.84169 2.87641 7.0539 2.48636 6.25 2.50036C5.69747 2.50036 5.16756 2.71986 4.77686 3.11056C4.38616 3.50126 4.16667 4.03116 4.16667 4.5837C4.16667 5.13623 4.38616 5.66614 4.77686 6.05684C5.16756 6.44754 5.69747 6.66703 6.25 6.66703M10 6.66703C10.3014 5.42487 10.8205 4.36292 11.4894 3.61966C12.1583 2.87641 12.9461 2.48636 13.75 2.50036C14.3025 2.50036 14.8324 2.71986 15.2231 3.11056C15.6138 3.50126 15.8333 4.03116 15.8333 4.5837C15.8333 5.13623 15.6138 5.66614 15.2231 6.05684C14.8324 6.44754 14.3025 6.66703 13.75 6.66703M15.8333 10.0004V15.8337C15.8333 16.2757 15.6577 16.6996 15.3452 17.0122C15.0326 17.3248 14.6087 17.5004 14.1667 17.5004H5.83333C5.39131 17.5004 4.96738 17.3248 4.65482 17.0122C4.34226 16.6996 4.16667 16.2757 4.16667 15.8337V10.0004M2.5 7.50036C2.5 7.27935 2.5878 7.06739 2.74408 6.91111C2.90036 6.75483 3.11232 6.66703 3.33333 6.66703H16.6667C16.8877 6.66703 17.0996 6.75483 17.2559 6.91111C17.4122 7.06739 17.5 7.27935 17.5 7.50036V9.16703C17.5 9.38805 17.4122 9.60001 17.2559 9.75629C17.0996 9.91257 16.8877 10.0004 16.6667 10.0004H3.33333C3.11232 10.0004 2.90036 9.91257 2.74408 9.75629C2.5878 9.60001 2.5 9.38805 2.5 9.16703V7.50036Z" stroke="#DC3055" stroke-width="1.8" stroke-linecap="round" stroke-linejoin="round"/>
</svg>
