<svg width="18" height="18" viewBox="0 0 18 18" fill="none" xmlns="http://www.w3.org/2000/svg">
<path d="M2.33333 10.6667L8.99999 8.16667L15.6667 10.6667M8.99999 1.5C10.9465 3.22215 13.4871 4.11881 16.0833 4C16.4613 5.28585 16.577 6.63456 16.4234 7.96598C16.2699 9.29741 15.8503 10.5844 15.1895 11.7504C14.5287 12.9165 13.6403 13.9378 12.577 14.7537C11.5138 15.5696 10.2973 16.1635 8.99999 16.5C7.70267 16.1635 6.48623 15.5696 5.42295 14.7537C4.35967 13.9378 3.47125 12.9165 2.81049 11.7504C2.14973 10.5844 1.73011 9.29741 1.57656 7.96598C1.42301 6.63456 1.53867 5.28585 1.91666 4C4.51293 4.11881 7.05347 3.22215 8.99999 1.5Z" stroke="white" stroke-width="1.8" stroke-linecap="round" stroke-linejoin="round"/>
</svg>
