<svg width="40" height="40" viewBox="0 0 40 40" fill="none" xmlns="http://www.w3.org/2000/svg">
<path d="M6.66667 23.3333L20 18.3333L33.3333 23.3333M20 5C23.8931 8.44429 28.9741 10.2376 34.1667 10C34.9227 12.5717 35.154 15.2691 34.8469 17.932C34.5398 20.5948 33.7005 23.1688 32.379 25.5009C31.0575 27.833 29.2807 29.8756 27.1541 31.5075C25.0275 33.1393 22.5947 34.327 20 35C17.4054 34.327 14.9725 33.1393 12.8459 31.5075C10.7194 29.8756 8.94252 27.833 7.621 25.5009C6.29947 23.1688 5.46023 20.5948 5.15313 17.932C4.84603 15.2691 5.07735 12.5717 5.83334 10C11.0259 10.2376 16.107 8.44429 20 5Z" stroke="#A3A3A3" stroke-width="2.8" stroke-linecap="round" stroke-linejoin="round"/>
</svg>
