<svg width="21" height="20" viewBox="0 0 21 20" fill="none" xmlns="http://www.w3.org/2000/svg">
<path d="M8.83333 6.66634V4.99967C8.83333 4.55765 9.00893 4.13372 9.32149 3.82116C9.63405 3.5086 10.058 3.33301 10.5 3.33301H16.3333C16.7754 3.33301 17.1993 3.5086 17.5118 3.82116C17.8244 4.13372 18 4.55765 18 4.99967V14.9997C18 15.4417 17.8244 15.8656 17.5118 16.1782C17.1993 16.4907 16.7754 16.6663 16.3333 16.6663H10.5C10.058 16.6663 9.63405 16.4907 9.32149 16.1782C9.00893 15.8656 8.83333 15.4417 8.83333 14.9997V13.333M13 9.99967H3M3 9.99967L5.5 7.49967M3 9.99967L5.5 12.4997" stroke="#737373" stroke-width="1.8" stroke-linecap="round" stroke-linejoin="round"/>
</svg>
