<svg width="25" height="24" viewBox="0 0 25 24" fill="none" xmlns="http://www.w3.org/2000/svg">
<path d="M17.625 20H6.625C5.82935 20 5.06629 19.6839 4.50368 19.1213C3.94107 18.5587 3.625 17.7956 3.625 17C3.625 16.2044 3.94107 15.4413 4.50368 14.8787C5.06629 14.3161 5.82935 14 6.625 14H17.625C16.8294 14 16.0663 14.3161 15.5037 14.8787C14.9411 15.4413 14.625 16.2044 14.625 17C14.625 17.7956 14.9411 18.5587 15.5037 19.1213C16.0663 19.6839 16.8294 20 17.625 20ZM17.625 20H18.625C19.4206 20 20.1837 19.6839 20.7463 19.1213C21.3089 18.5587 21.625 17.7956 21.625 17V6C21.625 5.46957 21.4143 4.96086 21.0392 4.58579C20.6641 4.21071 20.1554 4 19.625 4H9.625C9.09457 4 8.58586 4.21071 8.21079 4.58579C7.83571 4.96086 7.625 5.46957 7.625 6V14" stroke="#A3A3A3" stroke-width="1.8" stroke-linecap="round" stroke-linejoin="round"/>
</svg>
