<svg width="20" height="20" viewBox="0 0 20 20" fill="none" xmlns="http://www.w3.org/2000/svg">
<path d="M4.16667 16.6665C4.16667 17.1085 4.34226 17.5325 4.65482 17.845C4.96738 18.1576 5.39131 18.3332 5.83333 18.3332C6.27536 18.3332 6.69928 18.1576 7.01184 17.845C7.3244 17.5325 7.5 17.1085 7.5 16.6665M4.16667 16.6665C4.16667 16.2245 4.34226 15.8006 4.65482 15.488C4.96738 15.1754 5.39131 14.9998 5.83333 14.9998C6.27536 14.9998 6.69928 15.1754 7.01184 15.488C7.3244 15.8006 7.5 16.2245 7.5 16.6665M4.16667 16.6665H2.5V11.6665M7.5 16.6665H12.5M12.5 16.6665C12.5 17.1085 12.6756 17.5325 12.9882 17.845C13.3007 18.1576 13.7246 18.3332 14.1667 18.3332C14.6087 18.3332 15.0326 18.1576 15.3452 17.845C15.6577 17.5325 15.8333 17.1085 15.8333 16.6665M12.5 16.6665C12.5 16.2245 12.6756 15.8006 12.9882 15.488C13.3007 15.1754 13.7246 14.9998 14.1667 14.9998C14.6087 14.9998 15.0326 15.1754 15.3452 15.488C15.6577 15.8006 15.8333 16.2245 15.8333 16.6665M15.8333 16.6665H17.5V13.3332C17.5 12.8911 17.3244 12.4672 17.0118 12.1547C16.6993 11.8421 16.2754 11.6665 15.8333 11.6665H15M2.5 11.6665L4.16667 7.49984H11.6667L15 11.6665M2.5 11.6665H15M10 11.6665V7.49984M2.5 4.99984L10 1.6665L17.5 4.99984" stroke="#737373" stroke-width="1.8" stroke-linecap="round" stroke-linejoin="round"/>
</svg>
