<svg width="59" height="58" viewBox="0 0 59 58" fill="none" xmlns="http://www.w3.org/2000/svg">
<path d="M12.5833 41.0833C12.5833 42.3652 13.0926 43.5946 13.999 44.501C14.9054 45.4074 16.1348 45.9167 17.4167 45.9167C18.6985 45.9167 19.9279 45.4074 20.8343 44.501C21.7408 43.5946 22.25 42.3652 22.25 41.0833M12.5833 41.0833C12.5833 39.8015 13.0926 38.5721 13.999 37.6657C14.9054 36.7592 16.1348 36.25 17.4167 36.25C18.6985 36.25 19.9279 36.7592 20.8343 37.6657C21.7408 38.5721 22.25 39.8015 22.25 41.0833M12.5833 41.0833H7.75V26.5833M22.25 41.0833H36.75M38.1613 37.671C37.2544 38.5773 36.7446 39.8067 36.7442 41.0889C36.7437 42.371 37.2526 43.6008 38.1589 44.5078C39.0652 45.4147 40.2947 45.9244 41.5768 45.9249C42.8589 45.9253 44.0887 45.4165 44.9957 44.5102M7.75 26.5833L12.5833 14.5H15M7.75 26.5833H27.0833M24.6667 14.5H34.3333L44 26.5833M44 26.5833H46.4167C47.6985 26.5833 48.9279 27.0926 49.8343 27.999C50.7408 28.9054 51.25 30.1348 51.25 31.4167V41.0833M44 26.5833H36.75M29.5 19.3333V14.5M7.75 7.25L51.25 50.75" stroke="#D4D4D4" stroke-width="3.8" stroke-linecap="round" stroke-linejoin="round"/>
</svg>
