<svg width="31" height="32" viewBox="0 0 31 32" fill="none" xmlns="http://www.w3.org/2000/svg">
<path fill-rule="evenodd" clip-rule="evenodd" d="M31 24.2041H27.1676C23.2755 24.2041 20.1473 22.9633 15.5003 25.5153V20.7888C19.8584 17.8792 23.2556 19.4776 27.1278 19.4776H30.991V24.2041H31Z" fill="#00A070"/>
<path fill-rule="evenodd" clip-rule="evenodd" d="M0.000549316 26.8356H3.83304C7.72512 26.8356 10.8532 28.0764 15.5003 25.5244V30.2509C11.1422 33.1605 7.74499 31.5621 3.87277 31.5621H0.00957968V26.8356H0.000549316Z" fill="#DC3055"/>
<path fill-rule="evenodd" clip-rule="evenodd" d="M30.9802 14.751H27.1676C23.2755 14.751 20.1473 13.5102 15.5003 16.0622V11.3357C19.8584 8.42611 23.2556 10.0245 27.1278 10.0245H30.9802V14.751Z" fill="#00A070"/>
<path fill-rule="evenodd" clip-rule="evenodd" d="M0.000549316 17.3718H3.83304C7.72512 17.3718 10.8532 18.6125 15.5003 16.0605V20.787C11.1422 23.6966 7.74499 22.0983 3.87277 22.0983H0.00957968V17.3718H0.000549316Z" fill="#DC3055"/>
<path fill-rule="evenodd" clip-rule="evenodd" d="M31 5.28907H27.1676C23.2755 5.28907 20.1473 4.04829 15.5003 6.60028V1.87378C19.8584 -1.0358 23.2556 0.562573 27.1278 0.562573H30.991V5.28907H31Z" fill="#00A070"/>
<path fill-rule="evenodd" clip-rule="evenodd" d="M0.000549316 7.92058H3.83304C7.72512 7.92058 10.8532 9.16136 15.5003 6.60938V11.3359C11.1422 14.2455 7.74499 12.6471 3.87277 12.6471H0.00957968V7.92058H0.000549316Z" fill="#DC3055"/>
</svg>
