<svg width="25" height="24" viewBox="0 0 25 24" fill="none" xmlns="http://www.w3.org/2000/svg">
<path d="M14.625 3V7C14.625 7.26522 14.7304 7.51957 14.9179 7.70711C15.1054 7.89464 15.3598 8 15.625 8H19.625M14.625 3H7.625C7.09457 3 6.58586 3.21071 6.21079 3.58579C5.83571 3.96086 5.625 4.46957 5.625 5V19C5.625 19.5304 5.83571 20.0391 6.21079 20.4142C6.58586 20.7893 7.09457 21 7.625 21H17.625C18.1554 21 18.6641 20.7893 19.0392 20.4142C19.4143 20.0391 19.625 19.5304 19.625 19V8M14.625 3L19.625 8M9.625 9H10.625M9.625 13H15.625M9.625 17H15.625" stroke="#737373" stroke-width="1.8" stroke-linecap="round" stroke-linejoin="round"/>
</svg>
