<svg width="64" height="64" viewBox="0 0 64 64" fill="none" xmlns="http://www.w3.org/2000/svg">
<path d="M29.7147 55.3147C21.9039 52.6535 15.4229 47.078 11.6251 39.7522C7.82734 32.4264 7.00626 23.9168 9.33333 16C17.6414 16.3802 25.7711 13.5109 32 8C38.2289 13.5109 46.3586 16.3802 54.6667 16C56.0107 20.576 56.304 25.3467 55.5813 29.9653" stroke="#00A070" stroke-width="4" stroke-linecap="round" stroke-linejoin="round"/>
<path d="M47.3847 43.9411H36.071V48.1837M41.7279 48.1837V43.9411M48.799 41.1126C48.0488 41.8628 47.6274 42.8802 47.6274 43.9411C47.6274 45.0019 48.0488 46.0194 48.799 46.7695C49.5491 47.5196 50.5665 47.9411 51.6274 47.9411C52.6883 47.9411 53.7057 47.5196 54.4558 46.7695C55.206 46.0194 55.6274 45.0019 55.6274 43.9411C55.6274 42.8802 55.206 41.8628 54.4558 41.1126C53.7057 40.3625 52.6883 39.9411 51.6274 39.9411C50.5665 39.9411 49.5491 40.3625 48.799 41.1126Z" stroke="#00A070" stroke-width="4" stroke-linecap="round" stroke-linejoin="round"/>
</svg>
