<svg width="59" height="58" viewBox="0 0 59 58" fill="none" xmlns="http://www.w3.org/2000/svg">
<path d="M43.2025 42.6953C39.4743 46.6039 34.7285 49.3936 29.5 50.75C25.7378 49.7742 22.2101 48.052 19.1266 45.6858C16.0431 43.3197 13.4666 40.3578 11.5504 36.9763C9.63423 33.5947 8.41732 29.8625 7.97203 26.0014C7.52674 22.1402 7.86215 18.229 8.95833 14.5C10.8772 14.587 12.7839 14.4855 14.6544 14.2003M22.2137 11.9625C24.8652 10.7661 27.3214 9.17745 29.5 7.25C35.1449 12.2442 42.5125 14.8445 50.0417 14.5C51.1477 18.2629 51.479 22.2111 51.0154 26.1057C50.5519 30.0004 49.3031 33.7605 47.3447 37.1587M7.75 7.25L51.25 50.75" stroke="#D4D4D4" stroke-width="3.8" stroke-linecap="round" stroke-linejoin="round"/>
</svg>
