<svg width="38" height="38" viewBox="0 0 38 38" fill="none" xmlns="http://www.w3.org/2000/svg">
<g filter="url(#filter0_dd_31_52154)">
<path d="M9 13C9 8.58172 12.5817 5 17 5H21C25.4183 5 29 8.58172 29 13V17C29 21.4183 25.4183 25 21 25H17C12.5817 25 9 21.4183 9 17V13Z" fill="white" shape-rendering="crispEdges"/>
<path d="M17 4.5C12.3056 4.5 8.5 8.30558 8.5 13V17C8.5 21.6944 12.3056 25.5 17 25.5H21C25.6944 25.5 29.5 21.6944 29.5 17V13C29.5 8.30558 25.6944 4.5 21 4.5H17Z" stroke="#EFEFEF" shape-rendering="crispEdges"/>
</g>
<defs>
<filter id="filter0_dd_31_52154" x="0" y="0" width="38" height="38" filterUnits="userSpaceOnUse" color-interpolation-filters="sRGB">
<feFlood flood-opacity="0" result="BackgroundImageFix"/>
<feColorMatrix in="SourceAlpha" type="matrix" values="0 0 0 0 0 0 0 0 0 0 0 0 0 0 0 0 0 0 127 0" result="hardAlpha"/>
<feOffset dy="4"/>
<feGaussianBlur stdDeviation="4"/>
<feComposite in2="hardAlpha" operator="out"/>
<feColorMatrix type="matrix" values="0 0 0 0 0 0 0 0 0 0 0 0 0 0 0 0 0 0 0.03 0"/>
<feBlend mode="normal" in2="BackgroundImageFix" result="effect1_dropShadow_31_52154"/>
<feColorMatrix in="SourceAlpha" type="matrix" values="0 0 0 0 0 0 0 0 0 0 0 0 0 0 0 0 0 0 127 0" result="hardAlpha"/>
<feOffset dy="1"/>
<feGaussianBlur stdDeviation="0.75"/>
<feComposite in2="hardAlpha" operator="out"/>
<feColorMatrix type="matrix" values="0 0 0 0 0 0 0 0 0 0 0 0 0 0 0 0 0 0 0.03 0"/>
<feBlend mode="normal" in2="effect1_dropShadow_31_52154" result="effect2_dropShadow_31_52154"/>
<feBlend mode="normal" in="SourceGraphic" in2="effect2_dropShadow_31_52154" result="shape"/>
</filter>
</defs>
</svg>
