<svg width="32" height="32" viewBox="0 0 32 32" fill="none" xmlns="http://www.w3.org/2000/svg">
<path d="M0.5 16C0.5 7.43959 7.43959 0.5 16 0.5C24.5604 0.5 31.5 7.43959 31.5 16C31.5 24.5604 24.5604 31.5 16 31.5C7.43959 31.5 0.5 24.5604 0.5 16Z" fill="white"/>
<path d="M0.5 16C0.5 7.43959 7.43959 0.5 16 0.5C24.5604 0.5 31.5 7.43959 31.5 16C31.5 24.5604 24.5604 31.5 16 31.5C7.43959 31.5 0.5 24.5604 0.5 16Z" fill="#F0F9F6"/>
<path d="M0.5 16C0.5 7.43959 7.43959 0.5 16 0.5C24.5604 0.5 31.5 7.43959 31.5 16C31.5 24.5604 24.5604 31.5 16 31.5C7.43959 31.5 0.5 24.5604 0.5 16Z" stroke="#D6F0E8"/>
<path d="M15.6667 22H12.0001C11.6465 22 11.3073 21.8595 11.0573 21.6095C10.8072 21.3594 10.6667 21.0203 10.6667 20.6667V12.6667C10.6667 12.313 10.8072 11.9739 11.0573 11.7239C11.3073 11.4738 11.6465 11.3333 12.0001 11.3333H20.0001C20.3537 11.3333 20.6928 11.4738 20.9429 11.7239C21.1929 11.9739 21.3334 12.313 21.3334 12.6667V16.6667M18.6667 10V12.6667M13.3334 10V12.6667M10.6667 15.3333H21.3334M18.0001 20.6667L19.3334 22L22.0001 19.3333" stroke="#00A070" stroke-width="1.5" stroke-linecap="round" stroke-linejoin="round"/>
</svg>
