<svg width="25" height="24" viewBox="0 0 25 24" fill="none" xmlns="http://www.w3.org/2000/svg">
<path d="M8.875 7V5C8.875 4.46957 9.08571 3.96086 9.46079 3.58579C9.83586 3.21071 10.3446 3 10.875 3H14.875C15.4054 3 15.9141 3.21071 16.2892 3.58579C16.6643 3.96086 16.875 4.46957 16.875 5V7M12.875 12V12.01M3.875 13C6.66658 14.4067 9.74903 15.1394 12.875 15.1394C16.001 15.1394 19.0834 14.4067 21.875 13M3.875 9C3.875 8.46957 4.08571 7.96086 4.46079 7.58579C4.83586 7.21071 5.34457 7 5.875 7H19.875C20.4054 7 20.9141 7.21071 21.2892 7.58579C21.6643 7.96086 21.875 8.46957 21.875 9V18C21.875 18.5304 21.6643 19.0391 21.2892 19.4142C20.9141 19.7893 20.4054 20 19.875 20H5.875C5.34457 20 4.83586 19.7893 4.46079 19.4142C4.08571 19.0391 3.875 18.5304 3.875 18V9Z" stroke="#737373" stroke-width="1.8" stroke-linecap="round" stroke-linejoin="round"/>
</svg>
